<?xml version="1.0" encoding="UTF-8" standalone="no"?>
<svg
   version="1.1"
   width="1094"
   height="1094"
   id="svg8"
   sodipodi:docname="unnamed.svg"
   inkscape:version="1.4 (e7c3feb, 2024-10-09)"
   xmlns:inkscape="http://www.inkscape.org/namespaces/inkscape"
   xmlns:sodipodi="http://sodipodi.sourceforge.net/DTD/sodipodi-0.dtd"
   xmlns="http://www.w3.org/2000/svg"
   xmlns:svg="http://www.w3.org/2000/svg">
  <defs
     id="defs8" />
  <sodipodi:namedview
     id="namedview8"
     pagecolor="#505050"
     bordercolor="#eeeeee"
     borderopacity="1"
     inkscape:showpageshadow="0"
     inkscape:pageopacity="0"
     inkscape:pagecheckerboard="0"
     inkscape:deskcolor="#505050"
     inkscape:zoom="0.3308958"
     inkscape:cx="1189.1961"
     inkscape:cy="356.60773"
     inkscape:window-width="1920"
     inkscape:window-height="930"
     inkscape:window-x="0"
     inkscape:window-y="58"
     inkscape:window-maximized="1"
     inkscape:current-layer="svg8" />
  <path
     d="m 547.45421,285.14012 c -0.16875,3.62812 -0.16875,3.62812 -1.35,8.1 -1.95134,1.73452 -3.913,3.46398 -5.98535,5.05195 -4.59015,3.68586 -7.11895,7.38686 -8.07891,13.23633 -0.47492,9.29319 1.22473,15.21663 7.31426,22.21172 3.00437,3.0654 6.04796,6.08276 9.1303,9.06965 11.45086,11.21915 21.92695,24.37434 22.5947,40.88035 -0.91341,22.57848 -20.24175,39.04166 -35.35312,53.83125 -1.65067,1.63028 -3.30038,3.26153 -4.94912,4.89375 -3.02149,2.98875 -6.04827,5.97189 -9.08185,8.94836 -2.55684,2.50899 -5.09444,5.03317 -7.6244,7.56969 -3.09273,3.08309 -6.28644,5.99316 -9.56338,8.87882 -1.60015,1.4122 -1.60015,1.4122 -3.23262,2.85293 -0.79877,0.70132 -1.59754,1.40263 -2.42051,2.1252 1.93926,4.43068 4.32462,7.35861 7.7398,10.76449 1.04875,1.05246 2.0975,2.10492 3.17803,3.18927 1.15165,1.14195 2.30331,2.2839 3.48986,3.46045 1.21179,1.21218 2.42358,2.42436 3.67209,3.67328 3.31851,3.31928 6.64527,6.63018 9.97358,9.93963 3.47858,3.4617 6.94952,6.93105 10.42127,10.3996 6.57338,6.565 13.15362,13.12308 19.73634,19.6787 7.49473,7.46454 14.98178,14.93676 22.4682,22.40962 15.39843,15.37021 30.80645,30.73075 46.22083,46.08496 -2.59136,5.64637 -6.44014,9.5007 -10.81384,13.82036 -0.82994,0.83033 -1.65987,1.66066 -2.51496,2.51615 -2.74017,2.73829 -5.48977,5.4669 -8.23956,8.19552 -1.90357,1.89854 -3.80654,3.79767 -5.70895,5.69737 -5.0054,4.99511 -10.01886,9.98204 -15.03403,14.96734 -5.11751,5.08987 -10.22737,10.18741 -15.33788,15.28431 -10.02611,9.99718 -20.06076,19.98574 -30.10078,29.96895 2.16723,4.6043 4.59701,7.5842 8.26875,11.1375 0.97801,0.95365 1.95602,1.9073 2.96367,2.88984 0.7483,0.71698 1.4966,1.43396 2.26758,2.17266 4.02426,-1.80938 6.83566,-3.80068 9.94447,-6.91978 1.30607,-1.30051 1.30607,-1.30051 2.63853,-2.62728 0.93997,-0.94968 1.87994,-1.89936 2.8484,-2.87782 1.0015,-1.00111 2.00301,-2.00222 3.03486,-3.03367 3.30805,-3.30993 6.60644,-6.62932 9.90484,-9.94887 2.29201,-2.29705 4.58461,-4.5935 6.87779,-6.88938 6.03377,-6.04408 12.05939,-12.09622 18.08336,-18.15006 6.14856,-6.17617 12.30476,-12.34471 18.46033,-18.51388 12.07665,-12.10561 24.14497,-24.2195 36.20742,-36.33926 -1.91654,-4.35611 -4.22478,-7.25894 -7.58604,-10.61073 -1.01468,-1.01839 -2.02935,-2.03677 -3.07477,-3.08601 -1.11378,-1.10408 -2.22757,-2.20816 -3.3751,-3.34569 -1.17229,-1.17268 -2.34457,-2.34536 -3.55238,-3.55358 -3.21092,-3.20936 -6.42771,-6.41261 -9.64725,-9.6133 -3.36508,-3.34819 -6.7225,-6.70403 -10.08074,-10.05907 -6.35823,-6.34984 -12.72332,-12.69277 -19.09089,-19.03324 -7.24987,-7.21968 -14.49207,-14.44704 -21.73363,-21.67506 -14.89455,-14.86633 -29.7987,-29.72299 -44.7092,-44.57332 2.59874,-5.69959 6.53177,-9.45551 11.00567,-13.73203 1.70834,-1.66753 3.41603,-3.33571 5.12314,-5.00449 2.6668,-2.59252 5.33832,-5.17947 8.02255,-7.75393 18.7004,-17.9798 41.13605,-41.91255 42.4047,-69.4281 0.0194,-1.91769 0.0246,-3.83556 0.0158,-5.75333 0.0217,-0.93885 0.0435,-1.87771 0.0659,-2.84501 0.0134,-14.63548 -5.70526,-25.16769 -13.98779,-36.89561 -10.30807,-14.84953 -10.30807,-14.84953 -13.5,-21.9375 11.99861,-3.59958 26.94072,4.97061 37.54688,10.54687 24.1189,13.19445 38.47419,32.56394 46.68047,58.5668 7.18796,24.99343 1.85299,46.38425 -8.35873,69.59455 -2.71885,6.48024 -3.49275,10.85713 -1.61862,17.89178 0.891,0.891 1.782,1.782 2.7,2.7 0.0279,-1.44788 0.0557,-2.89575 0.0844,-4.3875 1.16173,-9.49594 7.25132,-17.93612 12.84082,-25.48125 5.62901,-7.74191 5.32683,-14.77085 4.6248,-24.13125 5.4,0 5.4,0 8.21602,2.05137 3.28114,4.25209 4.6852,8.63625 6.12773,13.72675 0.28573,0.9716 0.57145,1.94319 0.86583,2.94423 0.79989,2.75407 1.57264,5.5145 2.34042,8.27765 0.50902,1.73327 0.50902,1.73327 1.02832,3.50156 3.3575,12.76324 1.83271,25.56175 0.14469,38.44995 -4.15456,31.77879 1.57443,52.04084 16.20824,80.30786 14.84404,29.17386 14.02368,67.66616 4.53779,98.43465 -9.35153,25.78401 -26.96838,45.30637 -46.21904,64.15598 22.05225,0.66825 22.05225,0.66825 44.55,1.35 0,25.839 0,51.678 0,78.3 -102.465,0 -204.93,0 -310.5,0 0,-76.95 0,-76.95 1.35,-78.3 3.20407,-0.21562 6.3736,-0.34998 9.58184,-0.42715 1.43544,-0.0421 1.43544,-0.0421 2.89987,-0.085 3.06742,-0.0885 6.135,-0.16796 9.20267,-0.24722 2.07511,-0.0583 4.15021,-0.11717 6.22529,-0.17666 5.09661,-0.14482 10.19338,-0.2815 15.29033,-0.41396 -1.11027,-1.06328 -2.22054,-2.12657 -3.36445,-3.22207 -23.44963,-22.7401 -41.13181,-47.68691 -46.58555,-80.47793 -0.25581,-1.47224 -0.51163,-2.94448 -0.77519,-4.46133 -3.69113,-32.03491 1.64762,-60.5724 16.46894,-89.02617 12.02607,-23.10272 9.97985,-37.58037 2.35657,-61.75723 -5.35676,-17.24743 -7.8823,-33.58359 0.085,-50.40351 4.10372,-6.98963 8.86793,-12.60394 15.61465,-17.10176 3.62813,0.50625 3.62813,0.50625 6.75,1.35 -0.41765,1.53141 -0.83531,3.06281 -1.26562,4.64062 -1.50991,6.08248 -2.32613,12.06438 -2.78438,18.30938 -0.0888,1.01978 -0.1775,2.03955 -0.26894,3.09023 -0.38353,7.6969 1.08864,13.57106 5.66894,19.85977 3.29683,2.86353 3.29683,2.86353 6.75,4.05 0.891,-0.4455 1.782,-0.891 2.7,-1.35 -0.50293,-0.88404 -1.00585,-1.76808 -1.52402,-2.67891 -5.23473,-10.09859 -6.50516,-17.29012 -3.87598,-28.37109 1.84577,-5.79869 3.91172,-11.52147 5.93888,-17.25864 6.39879,-18.73778 9.58362,-39.52606 0.64237,-57.91949 -1.25297,-2.21357 -1.25297,-2.21357 -2.53125,-4.47187 1.3365,-1.3365 2.673,-2.673 4.05,-4.05 14.24469,3.59036 27.31927,9.7752 35.28457,22.74961 4.3443,10.18257 2.18669,21.88327 1.16543,32.60039 7.80296,-6.1324 11.14178,-10.54226 12.57715,-20.51895 0.44579,-8.23985 -2.15518,-14.10518 -5.82715,-21.33105 -7.55442,-15.96576 -11.85722,-28.38803 -6.92402,-46.06348 6.33947,-16.86869 17.91159,-29.46427 33.92402,-37.63652 3.68939,-1.55539 7.41583,-2.89376 11.22188,-4.13438 0.88762,-0.29214 1.77525,-0.58428 2.68978,-0.88527 6.13534,-1.799 10.91204,-1.66105 17.13834,-0.38035 z m -25.65,241.65 c -0.763,0.763 -1.52601,1.52601 -2.31213,2.31213 -19.92929,19.92929 -39.85858,39.85858 -59.78787,59.78787 -1.19699,1.20308 -2.39398,2.40616 -3.62724,3.6457 -3.57441,3.55328 -7.31702,6.67521 -11.22276,9.8543 7.42121,9.03865 15.67287,17.1949 23.95195,25.43379 1.53236,1.52983 3.06441,3.05996 4.59618,4.59038 4.00511,3.99999 8.01426,7.99591 12.0243,11.99095 4.10216,4.08828 8.20044,8.18045 12.29906,12.27228 8.0224,8.00799 16.04908,16.01167 24.07851,24.0126 4.90459,-2.28941 8.02641,-5.04631 11.8125,-8.94375 1.07895,-1.10331 2.15789,-2.20662 3.26953,-3.34336 0.81443,-0.84575 1.62886,-1.69151 2.46797,-2.56289 -1.98615,-4.59477 -4.54872,-7.57695 -8.08747,-11.09399 -1.10795,-1.10775 -2.21589,-2.21549 -3.35741,-3.35679 -1.19678,-1.18285 -2.39356,-2.36569 -3.6266,-3.58438 -1.22473,-1.22091 -2.44946,-2.44182 -3.71131,-3.69972 -3.24765,-3.23737 -6.50333,-6.46655 -9.76076,-9.69407 -3.32593,-3.29825 -6.64418,-6.60421 -9.96309,-9.90953 -6.5074,-6.47763 -13.02245,-12.94749 -19.54336,-19.41152 1.98616,-4.59477 4.54873,-7.57695 8.08748,-11.09399 1.10794,-1.10775 2.21589,-2.21549 3.35741,-3.35679 1.19677,-1.18285 2.39355,-2.36569 3.6266,-3.58438 1.22473,-1.22091 2.44946,-2.44182 3.7113,-3.69972 3.24765,-3.23737 6.50333,-6.46655 9.76076,-9.69407 3.32593,-3.29825 6.64418,-6.60421 9.96309,-9.90953 6.5074,-6.47763 13.02245,-12.94749 19.54336,-19.41152 -5.32162,-6.58867 -10.96132,-12.22838 -17.55,-17.55 z m 29.7,32.4 c -1.86614,2.19546 -3.67116,4.44488 -5.4,6.75 4.455,0 8.91,0 13.5,0 -1.72884,-2.30512 -3.53386,-4.55454 -5.4,-6.75 -0.891,0 -1.782,0 -2.7,0 z m -25.65,27 c 17.82,0 35.64,0 54,0 -5.52122,-8.26702 -5.52122,-8.26702 -11.12695,-9.1481 -1.61842,-0.009 -3.23684,-0.0183 -4.9043,-0.0277 -2.66256,-0.0157 -2.66256,-0.0157 -5.3789,-0.0316 -0.91798,0.017 -1.83595,0.0339 -2.78174,0.0514 -2.80293,0.0434 -5.59535,3.9e-4 -8.39795,-0.0514 -1.77504,0.0104 -3.55008,0.0209 -5.37891,0.0316 -1.61842,0.009 -3.23683,0.0183 -4.9043,0.0277 -5.60573,0.88108 -5.60573,0.88108 -11.12695,9.1481 z m -17.55,16.2 c 1.55484,3.3318 2.76458,5.46458 5.4,8.1 3.40122,0.43298 3.40122,0.43298 7.40852,0.39221 1.54999,0.0172 3.09998,0.0344 4.69695,0.0522 2.52276,0.005 2.52276,0.005 5.09648,0.009 1.72133,0.009 3.44265,0.018 5.21613,0.0272 3.64764,0.0137 7.29474,0.0212 10.94235,0.0196 4.67005,-2.8e-4 9.339,0.0366 14.0088,0.0831 4.4567,0.0373 8.91339,0.0357 13.37022,0.0389 2.51457,0.0291 2.51457,0.0291 5.07993,0.0588 1.5585,-0.008 3.11701,-0.0166 4.72274,-0.0252 1.37085,0.004 2.74171,0.008 4.1541,0.0117 4.50977,-0.83536 6.11664,-2.60187 9.00378,-6.06754 -1.64711,-3.63225 -1.64711,-3.63225 -4.05,-6.75 -2.50486,-0.14794 -5.01536,-0.20128 -7.52453,-0.21753 -2.41276,-0.0194 -2.41276,-0.0194 -4.87427,-0.0393 -2.62815,-0.009 -2.62815,-0.009 -5.3094,-0.0174 -1.80441,-0.008 -3.60882,-0.0155 -5.41323,-0.0233 -3.78829,-0.0142 -7.57655,-0.0221 -11.36487,-0.0268 -4.85614,-0.007 -9.71177,-0.0398 -14.56775,-0.0783 -3.72919,-0.0251 -7.45825,-0.0322 -11.18752,-0.0342 -2.66155,-0.006 -5.32304,-0.0313 -7.98447,-0.0567 -1.61702,0.004 -3.23404,0.008 -4.90006,0.0123 -1.42589,-0.005 -2.85178,-0.01 -4.32088,-0.0149 -3.99488,0.55782 -5.18597,1.40052 -7.60302,4.54612 z m 17.55,18.9 c 6.5869,9.43875 6.5869,9.43875 12.36094,10.67278 1.48964,0.0107 2.97928,0.0213 4.51406,0.0323 2.46417,0.0183 2.46417,0.0183 4.97813,0.0369 2.5477,-0.0548 2.5477,-0.0548 5.14687,-0.11074 1.69847,0.0365 3.39694,0.0731 5.14688,0.11074 1.64278,-0.0122 3.28556,-0.0244 4.97812,-0.0369 2.23446,-0.016 2.23446,-0.016 4.51406,-0.0323 5.77404,-1.23403 5.77404,-1.23403 12.36094,-10.67278 -17.82,0 -35.64,0 -54,0 z m 20.25,20.25 c 1.782,2.2275 3.564,4.455 5.4,6.75 4.26756,-1.84928 5.39016,-2.68524 8.1,-6.75 -4.455,0 -8.91,0 -13.5,0 z"
     fill="#020202"
     id="path1"
     style="stroke-width:1.35" />
  <path
     d="m 551.50421,19.19012 c 0.891,0 1.782,0 2.7,0 1.76666,1.985423 3.43533,4.058118 5.0625,6.159375 5.31412,6.646947 10.88659,12.944714 16.70625,19.153125 0.77397,0.82759 1.54794,1.65518 2.34536,2.507849 7.67599,8.153268 15.46531,16.110473 23.96382,23.411096 2.40382,2.065476 4.78783,4.154051 7.16133,6.254297 87.7845,77.216498 201.36191,128.894648 353.90698,173.600248 3.95376,1.11401 3.95376,1.11401 6.65376,2.46401 2.16426,14.58574 1.6228,29.83305 1.60313,44.55 -10e-4,1.71886 -10e-4,1.71886 -0.002,3.47243 -0.22841,120.84129 -14.41224,243.62769 -106.90065,505.47757 -0.96779,1.95156 -0.96779,1.95156 -1.95513,3.94255 -21.30348,42.78336 -48.79806,83.04726 -80.39487,118.90745 -0.85206,0.97029 -1.70412,1.94058 -2.58201,2.94027 -7.57195,8.52546 -15.45101,16.69418 -23.51162,24.75352 -2.08321,2.08617 -4.15534,4.18296 -6.22727,6.28033 -8.58687,8.63532 -17.51932,16.50987 -27.0791,24.07588 -1.63189,1.35027 -3.2602,2.70488 -4.8832,4.06582 -22.23182,18.37736 -46.71464,33.56326 -72.0668,47.23416 -1.17727,0.635 -2.35454,1.27 -3.56748,1.9242 -19.77877,10.5406 -40.18434,18.785 -61.23252,26.4258 -1.22795,0.459 -2.4559,0.918 -3.72107,1.3909 -3.27827,1.2243 -6.56685,2.4129 -9.8633,3.5872 -0.92189,0.346 -1.84378,0.692 -2.79361,1.0485 -12.80165,4.3801 -24.23931,-0.2541 -36.44077,-4.5922 -1.53336,-0.5396 -3.06673,-1.0792 -4.64656,-1.6351 -15.37768,-5.5076 -30.32274,-11.8253 -45.13469,-18.6993 -1.12223,-0.5157 -2.24447,-1.0315 -3.40071,-1.5629 -14.47327,-6.718 -28.22374,-14.493 -41.82429,-22.8215 -2.15044,-1.3133 -2.15044,-1.3133 -4.34432,-2.6532 -9.99808,-6.2207 -19.40226,-13.0337 -28.73068,-20.2124 -1.64732,-1.23949 -3.29584,-2.4774 -4.94648,-3.71248 -7.86466,-5.97631 -15.45383,-12.11993 -22.7127,-18.83145 -2.70134,-2.47448 -5.44056,-4.86303 -8.22129,-7.2457 -6.73359,-5.87823 -13.06574,-12.15537 -19.38285,-18.47351 -2.01234,-2.0094 -4.03525,-4.00772 -6.05885,-6.00579 -8.51867,-8.46896 -16.25219,-17.31305 -23.72783,-26.73105 -1.44797,-1.74677 -2.90108,-3.48929 -4.36113,-5.22598 C 226.6484,813.22265 183.07857,682.43583 140.05125,426.02379 c -0.28841,-3.0912 -0.5978,-6.1795 -0.91469,-9.2679 -5.52897,-54.43169 -3.81777,-109.38103 -3.43235,-164.01577 0.88119,-0.25578 1.76238,-0.51156 2.67028,-0.77509 122.22732,-35.50132 247.23824,-81.79566 345.62972,-165.27491 1.39307,-1.159459 2.78706,-2.317805 4.18184,-3.475196 22.32161,-18.599106 44.00984,-38.297397 61.31953,-61.746679 0.65955,-0.751781 1.3191,-1.503563 1.99863,-2.278125 z m -2.1776,58.613928 c -1.27923,1.326222 -1.27923,1.326222 -2.58431,2.679236 -1.42607,1.460328 -1.42607,1.460328 -2.88095,2.950159 -1.01401,1.046859 -2.02802,2.093719 -3.07276,3.172302 -7.57118,7.696376 -15.09904,14.999255 -23.60391,21.658005 -3.75825,2.94397 -7.36423,6.03333 -10.98984,9.13887 -9.59076,8.00469 -19.71644,15.22229 -29.90435,22.44243 -2.92877,2.08305 -5.8413,4.1868 -8.74995,6.2978 -34.67586,25.03247 -72.31237,45.51594 -110.43633,64.74727 -1.91371,0.96779 -1.91371,0.96779 -3.86609,1.95513 -57.81474,29.01704 -119.20247,49.86768 -181.08391,68.24487 -1.2591,94.22934 7.10751,188.175 25.10148,280.67921 0.51673,2.65729 1.02753,5.31574 1.53795,7.97426 14.1191,72.65518 38.34236,145.17111 72.00022,211.09438 1.69348,3.31727 3.32198,6.64511 4.92539,10.00899 21.08494,44.1679 49.74175,84.67106 82.73496,120.69316 1.21342,1.33897 2.42629,2.67845 3.63867,4.01836 9.85829,10.86705 19.84907,21.54992 31.01836,31.09219 2.42928,2.07874 4.82648,4.18128 7.21407,6.30703 19.13221,16.90325 40.09753,30.728 62.0789,43.63242 0.93973,0.5597 1.87945,1.11941 2.84766,1.69607 18.53049,10.98511 38.06052,19.67011 57.90234,28.00391 1.30061,0.5469 2.60122,1.0938 3.94124,1.6572 3.45319,1.4284 6.92022,2.809 10.40251,4.1647 1.47077,0.5996 1.47077,0.5996 2.97125,1.2112 11.86719,4.4247 22.04492,1.0175 33.39438,-3.4893 1.21479,-0.4747 2.42958,-0.9493 3.68119,-1.4384 68.11236,-27.0648 130.39819,-68.51836 177.80943,-124.95538 1.08765,-1.25297 2.17529,-2.50594 3.2959,-3.79688 73.86419,-85.41424 116.91588,-196.65487 174.9041,-618.55312 -1.62821,-0.49477 -3.25641,-0.98954 -4.93396,-1.4993 -60.78743,-18.51193 -119.99384,-39.78738 -177.31604,-67.3507 -1.27885,-0.61343 -2.55771,-1.22687 -3.87532,-1.85889 -39.66852,-19.14225 -78.35799,-41.36264 -113.6551,-67.75444 -3.26407,-2.41315 -6.58544,-4.737 -9.91406,-7.05981 -11.53413,-8.07324 -22.39558,-16.91632 -33.20552,-25.92686 -0.829,-0.68609 -1.65801,-1.37218 -2.51213,-2.07905 -9.9872,-8.284438 -19.44261,-16.878503 -28.42284,-26.25513 -1.79164,-1.851634 -3.6479,-3.640333 -5.51503,-5.41582 -2.84519,-0.297076 -2.84519,-0.297076 -4.8776,1.913928 z"
     fill="#020202"
     id="path2"
     style="stroke-width:1.35" />
  <path
     d="m 879.55421,390.44012 c 4.455,0 8.91,0 13.5,0 0.25082,13.52073 -0.48352,26.87026 -1.60312,40.33125 -0.0882,1.07102 -0.17631,2.14204 -0.26714,3.24551 -5.98064,71.70994 -18.59452,142.81407 -39.97974,211.57324 -0.52729,1.69695 -1.05458,3.39389 -1.59785,5.14226 -8.01027,25.47199 -17.46905,50.03788 -28.10215,74.50774 -0.58472,1.35717 -1.16944,2.71433 -1.77187,4.11262 -19.37079,44.74198 -44.73475,87.38208 -75.17813,125.48738 -1.00933,1.27037 -2.01867,2.54074 -3.05859,3.84961 -6.22284,7.72415 -12.73465,15.1221 -19.45371,22.41738 -2.59913,2.84375 -5.11672,5.72823 -7.60957,8.66426 -4.35815,5.00877 -8.98704,9.72433 -13.66875,14.42812 -0.70969,0.71589 -1.41938,1.43178 -2.15058,2.16937 -16.13432,16.07241 -34.18938,30.69214 -52.77755,43.81501 -0.92569,0.65378 -1.85139,1.30757 -2.80514,1.98116 -5.59942,3.88962 -11.31038,7.37457 -17.27611,10.67509 -4.05,-8.94375 -4.05,-8.94375 -4.05,-13.5 3.22207,-2.57871 3.22207,-2.57871 7.67813,-5.48438 1.62668,-1.08616 3.25083,-2.17612 4.87265,-3.26953 0.83445,-0.56122 1.66889,-1.12245 2.52862,-1.70068 29.50324,-20.24609 57.71745,-45.91948 80.7706,-73.24541 1.05806,-1.20772 2.11613,-2.41545 3.20625,-3.65977 76.47422,-87.8111 119.50013,-203.56371 158.79375,-471.54023 z"
     fill="#080808"
     id="path3"
     style="stroke-width:1.35" />
  <path
     d="m 214.00421,390.44012 c 4.0095,0 8.019,0 12.15,0 1.68421,5.05262 1.86136,9.96092 2.17793,15.23496 0.15095,2.33189 0.30259,4.66374 0.45484,6.99555 0.079,1.23025 0.15803,2.4605 0.23944,3.72803 3.79682,58.18216 11.71151,115.77899 25.47779,172.49146 0.33282,1.41155 0.66564,2.8231 1.00855,4.27742 22.91273,96.69526 65.28752,198.60922 133.77524,272.01906 2.42504,2.62238 4.75226,5.28973 7.07695,7.99981 5.69432,6.52513 11.75286,12.66852 17.87564,18.79025 1.91154,1.91448 3.81205,3.83996 5.71245,5.76551 8.32785,8.34525 16.98739,15.96138 26.25117,23.24795 1.06481,0.84608 2.12961,1.69216 3.22669,2.56388 2.99113,2.36672 5.9955,4.71503 9.00769,7.05487 1.03957,0.80856 2.07914,1.61711 3.15022,2.45017 7.31827,5.66323 14.71951,11.13759 22.4154,16.28108 -0.82957,4.50661 -1.81657,8.12983 -4.05,12.15 -5.82265,-2.00594 -10.5094,-5.08677 -15.44062,-8.69063 -0.81835,-0.59244 -1.63669,-1.18488 -2.47984,-1.79527 -12.75146,-9.30055 -25.18499,-18.94023 -36.78618,-29.65551 -2.727,-2.49473 -5.49352,-4.91045 -8.29512,-7.31953 -6.6935,-5.84393 -12.9856,-12.06736 -19.26386,-18.35156 -1.19794,-1.19902 -2.39587,-2.39804 -3.63011,-3.6334 -7.93557,-8.01034 -15.20287,-16.13861 -22.10427,-25.0541 -2.13253,-2.50736 -4.27036,-5.01022 -6.4125,-7.50938 -14.62719,-17.55262 -27.43758,-36.55117 -39.4875,-55.94062 -0.53621,-0.85859 -1.07242,-1.71718 -1.62488,-2.60178 -34.55267,-55.76949 -59.50275,-117.81304 -76.67512,-180.99822 -0.37679,-1.38618 -0.37679,-1.38618 -0.76119,-2.80036 -18.57078,-68.68867 -33.83168,-143.64086 -33.07318,-215.05589 0.006,-1.13811 0.0122,-2.27623 0.0185,-3.44883 0.0155,-2.73168 0.0397,-5.46332 0.0659,-8.19492 z"
     fill="#080808"
     id="path4"
     style="stroke-width:1.35" />
  <path
     d="m 552.85421,125.84012 c 6.28799,4.43222 12.08097,9.19126 17.71875,14.42812 64.4485,59.23251 147.99335,101.56057 228.45322,134.36456 0.99181,0.40451 1.98361,0.80903 3.00547,1.2258 1.84262,0.74932 3.68666,1.49517 5.53246,2.23664 5.22882,2.11753 10.27658,4.45944 15.2901,7.04488 -2.00475,6.01425 -2.00475,6.01425 -4.05,12.15 -58.57492,-18.61201 -115.16257,-49.00022 -167.4,-81 -1.21446,-0.7396 -2.42893,-1.4792 -3.6802,-2.24121 -15.98395,-9.76474 -31.23554,-20.34474 -46.2698,-31.50879 -1.44483,-1.06633 -1.44483,-1.06633 -2.91885,-2.1542 -15.29962,-11.29625 -30.10425,-23.01087 -44.33115,-35.6458 -6.39137,4.69343 -12.60372,9.53322 -18.67093,14.6384 -27.70733,23.29732 -58.11814,43.99925 -89.32907,62.3116 -1.47061,0.86403 -1.47061,0.86403 -2.97092,1.74551 -18.49924,10.82737 -37.34772,20.89565 -56.42908,30.65449 -0.95713,0.49336 -1.91426,0.98671 -2.90039,1.49502 -24.07033,12.39767 -48.74192,23.60597 -73.79648,33.8581 -1.54501,0.63399 -3.09001,1.26798 -4.68183,1.92118 -1.44298,0.58244 -2.88596,1.16487 -4.37267,1.76496 -1.90245,0.76793 -1.90245,0.76793 -3.84334,1.55138 -3.42795,1.21425 -6.72569,1.99568 -10.30529,2.60936 -1.3365,-4.0095 -2.673,-8.019 -4.05,-12.15 2.07262,-0.86403 2.07262,-0.86403 4.18711,-1.74551 7.16386,-2.99563 14.31476,-6.02155 21.46289,-9.05449 1.51879,-0.64389 3.03758,-1.28777 4.60239,-1.95117 34.87012,-14.82622 69.00584,-30.74332 102.04761,-49.34883 1.19315,-0.66629 2.3863,-1.33258 3.6156,-2.01907 43.59877,-24.36425 83.83015,-52.61386 121.87639,-84.95046 4.05141,-3.43251 8.1243,-6.83653 12.20801,-10.23047 z"
     fill="#080808"
     id="path5"
     style="stroke-width:1.35" />
  <path
     d="m 856.60421,290.54012 c 2.30694,2.19159 4.55553,4.44581 6.75,6.75 0,0.891 0,1.782 0,2.7 6.20064,-2.00609 10.03819,-5.1977 14.85,-9.45 3.564,1.782 7.128,3.564 10.8,5.4 -0.13183,3.07617 -0.26367,6.15234 -0.39551,9.22852 0.13052,0.96409 0.26104,1.92818 0.39551,2.92148 4.63753,3.09168 6.7302,2.94088 12.15,2.7 0.98236,1.67244 1.93259,3.36377 2.86875,5.0625 0.79877,1.40959 0.79877,1.40959 1.61367,2.84766 0.91758,2.88984 0.91758,2.88984 -0.0211,5.86406 -1.76133,2.42578 -1.76133,2.42578 -5.81133,3.77578 1.5112,6.54855 2.88019,10.50016 8.1,14.85 -1.782,4.0095 -3.564,8.019 -5.4,12.15 -1.94906,-0.0835 -3.89812,-0.16706 -5.90625,-0.25313 -3.26396,-0.23777 -3.26396,-0.23777 -6.24375,0.25313 -3.09168,4.63753 -2.94088,6.7302 -2.7,12.15 -8.53028,4.1011 -8.53028,4.1011 -12.4875,3.88125 -2.3625,-1.18125 -2.3625,-1.18125 -4.30312,-3.375 -2.05308,-2.23069 -2.05308,-2.23069 -5.4,-1.77188 -4.054,1.48317 -6.04916,3.43908 -8.85938,6.66563 -2.0007,-0.60627 -3.99674,-1.22791 -5.99062,-1.85625 -1.66802,-0.51685 -1.66802,-0.51685 -3.36973,-1.04414 -2.78965,-1.14961 -2.78965,-1.14961 -4.13965,-3.84961 0.2506,-1.55925 0.50119,-3.1185 0.75938,-4.725 0.1949,-1.55925 0.38981,-3.1185 0.59062,-4.725 -2.41188,-2.9885 -2.41188,-2.9885 -5.62148,-2.96367 -1.09635,0.0313 -2.1927,0.0627 -3.32227,0.0949 -1.10331,0.0244 -2.20662,0.0487 -3.34336,0.0738 -0.84575,0.0313 -1.69151,0.0627 -2.56289,0.0949 -4.05,-8.775 -4.05,-8.775 -4.05,-14.85 4.33929,-4.05 4.33929,-4.05 8.1,-4.05 -1.63138,-5.98172 -3.39752,-9.42452 -8.1,-13.5 1.42931,-4.59422 2.71218,-8.11827 5.4,-12.15 2.92149,-0.39551 2.92149,-0.39551 6.24375,-0.25313 1.10331,0.0366 2.20662,0.0731 3.34336,0.11075 0.84575,0.047 1.69151,0.094 2.56289,0.14238 1.05088,-4.5976 1.48471,-8.78534 1.35,-13.5 4.0095,-1.782 8.019,-3.564 12.15,-5.4 z m -1.35,33.75 c -2.17782,4.35564 -2.14394,8.79049 -1.35,13.5 3.23782,4.4758 5.4953,6.32287 10.71563,8.1 5.14315,0 7.92111,-1.3052 12.23437,-4.05 3.31964,-4.97946 3.78155,-9.07049 2.7,-14.85 -3.41423,-4.8627 -5.72113,-6.43199 -11.39062,-8.18438 -5.93201,0.10408 -8.40483,1.73059 -12.90938,5.48438 z"
     fill="#050505"
     id="path6"
     style="stroke-width:1.35" />
  <path
     d="m 230.20421,290.54012 c 3.93548,1.44991 6.45044,2.40044 9.45,5.4 0.26367,4.10273 0.26367,4.10273 0.16875,8.94375 -0.0244,1.6045 -0.0487,3.20899 -0.0738,4.86211 -0.0313,1.23557 -0.0627,2.47113 -0.0949,3.74414 2.2275,0 4.455,0 6.75,0 0.45942,-1.05632 0.91885,-2.11264 1.39219,-3.20098 5.28077,-11.02501 5.28077,-11.02501 9.65039,-12.93574 2.96367,-0.31641 2.96367,-0.31641 7.85742,-0.0633 1.90259,6.65907 1.90259,6.65907 1.35,10.8 -3.10997,4.19385 -6.77819,7.49103 -10.8,10.8 0.891,1.782 1.782,3.564 2.7,5.4 3.1991,-0.59983 6.29331,-1.18795 9.36563,-2.27813 2.82676,-0.94225 5.202,-1.65161 8.18437,-1.77187 4.05,3.20625 4.05,3.20625 6.75,6.75 -2.25933,5.70777 -2.25933,5.70777 -5.4,8.1 -5.90155,0.74408 -11.63103,0.46188 -17.55,0 0,2.2275 0,4.455 0,6.75 1.05632,0.47508 2.11265,0.95017 3.20098,1.43965 11.02501,5.37908 11.02501,5.37908 12.93574,9.30234 0.31641,2.58926 0.31641,2.58926 0.0633,6.80801 -4.14547,1.11862 -7.85798,1.77105 -12.15,1.35 -3.81435,-2.63964 -6.61715,-5.79736 -9.45,-9.45 -1.782,0.891 -3.564,1.782 -5.4,2.7 0.30802,0.89622 0.61604,1.79244 0.9334,2.71582 0.38807,1.19206 0.77614,2.38412 1.17598,3.6123 0.39155,1.17466 0.7831,2.34932 1.18652,3.55958 0.84106,4.02885 0.59298,6.44484 -0.5959,10.3623 -0.891,1.3365 -1.782,2.673 -2.7,4.05 -6.4125,-2.53125 -6.4125,-2.53125 -9.45,-4.05 -0.55898,-3.9709 -0.55898,-3.9709 -0.84375,-8.85938 -0.10093,-1.61667 -0.20187,-3.23335 -0.30586,-4.89902 -0.0661,-1.25123 -0.13226,-2.50246 -0.20039,-3.7916 -2.673,-0.4455 -5.346,-0.891 -8.1,-1.35 -0.26103,0.84575 -0.52207,1.69151 -0.79101,2.56289 -0.35153,1.10331 -0.70306,2.20662 -1.06524,3.34336 -0.51685,1.64452 -0.51685,1.64452 -1.04414,3.32227 -1.14961,2.92148 -1.14961,2.92148 -3.84961,5.62148 -2.68409,0.53682 -5.38575,0.99597 -8.1,1.35 -2.52768,-4.26547 -3.73007,-7.22855 -2.7,-12.15 2.88518,-3.45358 6.08368,-6.47012 9.45,-9.45 -0.891,-1.782 -1.782,-3.564 -2.7,-5.4 -1.34433,0.46203 -1.34433,0.46203 -2.71582,0.9334 -1.19206,0.38807 -2.38412,0.77614 -3.6123,1.17597 -1.17466,0.39156 -2.34932,0.78311 -3.55957,1.18653 -4.02886,0.84106 -6.44485,0.59298 -10.36231,-0.5959 -1.3365,-0.891 -2.673,-1.782 -4.05,-2.7 0.81594,-4.56925 2.09743,-7.49743 5.4,-10.8 4.23457,-0.52734 4.23457,-0.52734 9.02813,-0.3375 1.59231,0.0487 3.18463,0.0974 4.82519,0.14766 1.82986,0.094 1.82986,0.094 3.69668,0.18984 0,-2.673 0,-5.346 0,-8.1 -1.05632,-0.37763 -2.11264,-0.75526 -3.20098,-1.14434 -4.12374,-1.63373 -7.88863,-3.24666 -11.64902,-5.60566 -1.60312,-5.14688 -1.60312,-5.14688 -1.35,-9.45 7.32329,-2.99589 7.32329,-2.99589 10.75781,-1.6875 2.86163,1.761 5.28927,3.68107 7.80469,5.90625 0.82835,0.72742 1.6567,1.45484 2.51016,2.2043 0.61952,0.55339 1.23904,1.10679 1.87734,1.67695 1.3365,-0.891 2.673,-1.782 4.05,-2.7 -0.59752,-3.18677 -1.1948,-6.28905 -2.23066,-9.36563 -0.8937,-2.79215 -1.60099,-5.2573 -1.81934,-8.18437 2.53125,-4.05 2.53125,-4.05 5.4,-6.75 z"
     fill="#090909"
     id="path7"
     style="stroke-width:1.35" />
  <path
     d="m 551.50421,908.84012 c 0.891,0 1.782,0 2.7,0 0.90837,3.26038 1.80692,6.52293 2.7,9.7875 0.25756,0.92058 0.51511,1.84117 0.78047,2.78965 1.24395,4.57596 1.91953,8.29087 1.91953,13.07285 1.42003,-0.78311 1.42003,-0.78311 2.86875,-1.58203 7.52399,-4.13002 15.07554,-8.13781 22.78125,-11.91797 -3.18439,8.53995 -7.79337,16.31285 -12.15,24.3 8.4645,2.673 16.929,5.346 25.65,8.1 -2.8749,2.8749 -4.17912,3.36124 -7.98398,4.44023 -1.54011,0.44376 -1.54011,0.44376 -3.11133,0.89649 -1.60798,0.44898 -1.60798,0.44898 -3.24844,0.90703 -1.62364,0.46464 -1.62364,0.46464 -3.28008,0.93867 -2.67314,0.76376 -5.34938,1.5167 -8.02617,2.26758 0.89274,1.52793 1.78548,3.05585 2.70527,4.63008 1.15194,2.00006 2.30328,4.00047 3.45411,6.00117 0.59081,1.0076 1.18162,2.01519 1.79033,3.05332 0.82879,1.44875 0.82879,1.44875 1.67431,2.92676 0.51609,0.89078 1.03218,1.78156 1.56391,2.69934 0.31748,0.75548 0.63497,1.51096 0.96207,2.28933 -0.66825,1.3365 -0.66825,1.3365 -1.35,2.7 -1.43047,-0.87708 -2.86094,-1.75416 -4.33476,-2.65781 -1.87364,-1.13938 -3.74748,-2.27842 -5.62149,-3.41719 -0.94321,-0.5795 -1.88641,-1.159 -2.8582,-1.75605 -4.72661,-3.18512 -4.72661,-3.18512 -10.13555,-4.31895 -2.2275,8.019 -4.455,16.038 -6.75,24.3 -0.891,0 -1.782,0 -2.7,0 -2.2275,-8.019 -4.455,-16.038 -6.75,-24.3 -5.61881,2.24752 -10.65147,4.70535 -15.94687,7.59375 -1.2099,0.65781 -1.2099,0.65781 -2.44424,1.32891 -1.97144,1.07246 -3.94042,2.14944 -5.90889,3.22734 2.67744,-9.00591 7.33153,-16.26922 12.15,-24.3 -8.4645,-2.673 -16.929,-5.346 -25.65,-8.1 3.37067,-2.24711 5.43269,-3.30394 9.17051,-4.44023 0.96148,-0.29584 1.92296,-0.59168 2.91357,-0.89649 1.49443,-0.44898 1.49443,-0.44898 3.01905,-0.90703 1.51792,-0.46464 1.51792,-0.46464 3.0665,-0.93867 2.49165,-0.76178 4.98578,-1.51547 7.48037,-2.26758 -0.86141,-1.52793 -1.72283,-3.05585 -2.61035,-4.63008 -1.12679,-2.00037 -2.25355,-4.00076 -3.38027,-6.00117 -0.56819,-1.0076 -1.13638,-2.01519 -1.72178,-3.05332 -0.54382,-0.96583 -1.08765,-1.93166 -1.64795,-2.92676 -0.75292,-1.33617 -0.75292,-1.33617 -1.52106,-2.69934 -0.91037,-1.64288 -1.77861,-3.30937 -2.61859,-4.98933 5.38575,1.97742 10.104,4.55929 15.01875,7.50937 4.0306,2.41736 7.52151,4.50405 11.98125,5.99063 0.13922,-1.47572 0.27844,-2.95144 0.42188,-4.47188 0.88621,-7.25915 2.93097,-14.17403 4.97812,-21.17812 z"
     fill="#080808"
     id="path8"
     style="stroke-width:1.35" />
</svg>
